<?xml version="1.0" standalone="no"?>
<!DOCTYPE svg PUBLIC "-//W3C//DTD SVG 20010904//EN"
 "http://www.w3.org/TR/2001/REC-SVG-20010904/DTD/svg10.dtd">
<svg version="1.0" xmlns="http://www.w3.org/2000/svg"
 width="1378.000000pt" height="1378.000000pt" viewBox="0 0 1378.000000 1378.000000"
 preserveAspectRatio="xMidYMid meet">
<metadata>
Created by potrace 1.14, written by Peter Selinger 2001-2017
</metadata>
<g transform="translate(0.000000,1378.000000) scale(0.100000,-0.100000)"
fill="#000000" stroke="none">
<path d="M6713 13228 c3 -7 25 -62 50 -123 25 -60 57 -155 71 -210 59 -228 56
-95 56 -2615 0 -1561 -3 -2343 -11 -2400 -25 -202 -76 -377 -163 -555 -261
-533 -771 -889 -1368 -954 -128 -14 -3713 -15 -3846 -1 -414 44 -780 222
-1068 521 -186 194 -307 396 -395 659 l-38 115 -1 -2498 c0 -1691 3 -2529 11
-2595 79 -731 507 -1378 1154 -1744 214 -122 445 -203 734 -261 106 -21 108
-21 2554 -24 l2447 -3 0 2085 c0 1410 3 2117 11 2183 31 282 125 546 278 774
259 388 637 640 1107 740 l109 23 1920 3 c1711 2 1932 1 2030 -13 646 -94
1166 -519 1386 -1134 l38 -106 -2 3065 c-3 3386 3 3093 -63 3355 -203 809
-841 1452 -1642 1655 -279 70 -31 64 -2836 67 -2038 3 -2527 1 -2523 -9z"/>
</g>
</svg>
